<svg width="36" height="20" viewBox="0 0 36 20" fill="none"
  xmlns="http://www.w3.org/2000/svg">
  <rect x="1.40234" y="1.29004" width="33.3871" height="17.4194" rx="1.99597" stroke="url(#paint0_linear_2640_20248)" stroke-width="1.99597"/>
  <path d="M12.8439 8.8223C12.8439 10.5375 11.5043 11.852 9.714 11.852H8.68739V14.6689H6.69678V5.78004H9.714C11.5043 5.78004 12.8439 7.10712 12.8439 8.8223ZM10.9159 8.8223C10.9159 8.15876 10.4026 7.65798 9.68896 7.65798H8.68739V9.98662H9.68896C10.4026 9.98662 10.9159 9.47332 10.9159 8.8223ZM14.1181 14.6689V5.78004H17.6235C19.3012 5.78004 20.3778 6.98192 20.3778 8.45923C20.3778 9.61104 19.7644 10.3497 18.6376 10.7503L21.78 14.6689H19.3888L16.4342 11.0007H16.1087V14.6689H14.1181ZM16.1087 9.31057H17.3857C17.9741 9.31057 18.3998 8.97254 18.3998 8.45923C18.3998 7.92089 17.9741 7.6079 17.3857 7.6079H16.1087V9.31057ZM26.1712 14.8192C23.6297 14.8192 21.5765 12.7534 21.5765 10.2245C21.5765 7.69554 23.6297 5.62981 26.1712 5.62981C28.7001 5.62981 30.7659 7.69554 30.7659 10.2245C30.7659 12.7534 28.7001 14.8192 26.1712 14.8192ZM26.1712 12.8912C27.6109 12.8912 28.7502 11.6642 28.7502 10.2245C28.7502 8.78474 27.6109 7.55782 26.1712 7.55782C24.7189 7.55782 23.5796 8.78474 23.5796 10.2245C23.5796 11.6642 24.7189 12.8912 26.1712 12.8912Z" fill="url(#paint1_linear_2640_20248)"/>
  <defs>
    <linearGradient id="paint0_linear_2640_20248" x1="18.0959" y1="4.25925" x2="18.0959" y2="18.7094" gradientUnits="userSpaceOnUse">
      <stop stop-color="#9327FE"/>
      <stop offset="1" stop-color="#6501E5"/>
    </linearGradient>
    <linearGradient id="paint1_linear_2640_20248" x1="18.8223" y1="4.30074" x2="18.8223" y2="17.1088" gradientUnits="userSpaceOnUse">
      <stop stop-color="#9327FE"/>
      <stop offset="1" stop-color="#6501E5"/>
    </linearGradient>
  </defs>
</svg>
