<svg width="93" height="31" viewBox="0 0 93 31" fill="none" xmlns="http://www.w3.org/2000/svg">
<g clip-path="url(#clip0_11758_108706)">
<rect x="69" y="13" width="23" height="12" rx="1.375" stroke="url(#paint0_linear_11758_108706)" stroke-width="1.375"/>
<path d="M1.00439 13.4225C1.00439 13.2606 1.09057 13.1108 1.23061 13.0295L4.20262 11.3027C4.35415 11.2146 4.54411 11.3239 4.54411 11.4992V24.0046C4.54411 24.0914 4.47368 24.1619 4.38679 24.1619H1.16172C1.07483 24.1619 1.00439 24.0914 1.00439 24.0046V13.4225Z" fill="url(#paint1_linear_11758_108706)"/>
<path d="M1.0044 12.9081C1.0044 12.8519 1.03435 12.8 1.08298 12.7719L4.30806 10.9076C4.41294 10.8469 4.54412 10.9226 4.54412 11.0438L4.54412 17.4757C4.54412 17.606 4.43846 17.7117 4.30813 17.7117H1.24038C1.11005 17.7117 1.0044 17.606 1.0044 17.4757V12.9081Z" fill="url(#paint2_linear_11758_108706)"/>
<path d="M9.94758 10.717L1.31985 15.6708C1.12442 15.783 1.00391 15.9911 1.00391 16.2165V19.8946L10.3399 14.5044C10.5346 14.392 10.6546 14.1842 10.6546 13.9594V11.1263C10.6546 10.7634 10.2622 10.5363 9.94758 10.717Z" fill="url(#paint3_linear_11758_108706)"/>
<path fill-rule="evenodd" clip-rule="evenodd" d="M1.38428 19.6756C1.15785 19.7976 1.00395 20.0368 1.00395 20.3121C1.00395 20.3139 1.00396 20.3156 1.00397 20.3174L1.00395 20.3174L1.00395 19.4598L1.38428 19.6756Z" fill="#6501E5"/>
<path fill-rule="evenodd" clip-rule="evenodd" d="M10.3193 14.517C10.3507 14.4422 10.368 14.3601 10.368 14.2739C10.368 14.14 10.3262 14.0159 10.2549 13.9138L10.6572 13.6862L10.6572 13.9586C10.6572 14.1832 10.5374 14.3909 10.3429 14.5033L10.3193 14.517Z" fill="#9327FE"/>
<path d="M10.2602 13.9246C10.1524 13.593 4.61972 9.8764 0.811637 7.30174C0.683155 7.21488 0.745377 7.01472 0.900468 7.01472L5.4359 7.01469C5.46782 7.01469 5.49897 7.0244 5.52524 7.04252L10.3855 10.3956C10.5558 10.5131 10.6575 10.7067 10.6575 10.9136L10.6574 13.6938L10.2602 13.9246Z" fill="#9327FE"/>
<path d="M12.9248 17.3595C12.7927 17.3195 12.5946 17.2929 12.3965 17.2929C11.8681 17.2929 11.036 17.5059 10.6926 18.2514V17.3595H8.75098V23.9757H10.7586V21.0869C10.7586 19.769 11.4851 19.2898 12.2908 19.2898C12.4889 19.2898 12.7003 19.3031 12.9248 19.3563V17.3595Z" fill="#0556F3"/>
<path d="M17.0768 22.3117C16.3239 22.3117 15.5974 21.7659 15.5974 20.661C15.5974 19.5427 16.3239 19.0235 17.0768 19.0235C17.8429 19.0235 18.5561 19.5427 18.5561 20.661C18.5561 21.7792 17.8429 22.3117 17.0768 22.3117ZM17.0768 17.1598C15.1219 17.1598 13.5898 18.6108 13.5898 20.661C13.5898 22.7111 15.1219 24.1754 17.0768 24.1754C19.0448 24.1754 20.5638 22.7111 20.5638 20.661C20.5638 18.6108 19.0448 17.1598 17.0768 17.1598Z" fill="#0556F3"/>
<path d="M21.3938 24.3485C21.5788 25.5333 22.7807 26.7048 24.6695 26.7048C27.1263 26.7048 28.1829 25.054 28.1829 23.1504V17.3595H26.2677V18.065C26.0828 17.7189 25.5148 17.2397 24.445 17.2397C22.6486 17.2397 21.3938 18.7307 21.3938 20.4746C21.3938 22.3117 22.7015 23.6962 24.445 23.6962C25.396 23.6962 25.9639 23.3101 26.2017 22.9507V23.2569C26.2017 24.455 25.5809 24.9475 24.577 24.9475C23.8242 24.9475 23.2958 24.4816 23.1638 23.8426L21.3938 24.3485ZM24.8148 21.9389C24.0091 21.9389 23.4015 21.3798 23.4015 20.4746C23.4015 19.5693 24.0619 19.0102 24.8148 19.0102C25.5677 19.0102 26.2149 19.5693 26.2149 20.4746C26.2149 21.3798 25.6337 21.9389 24.8148 21.9389Z" fill="#0556F3"/>
<path d="M34.053 17.3595C33.9209 17.3195 33.7228 17.2929 33.5247 17.2929C32.9963 17.2929 32.1642 17.5059 31.8208 18.2514V17.3595H29.8792V23.9757H31.8868V21.0869C31.8868 19.769 32.6133 19.2898 33.419 19.2898C33.6171 19.2898 33.8285 19.3031 34.053 19.3563V17.3595Z" fill="#0556F3"/>
<path d="M34.9262 22.1519C34.9262 23.2036 35.7583 24.1621 37.198 24.1621C38.0698 24.1621 38.7038 23.7894 39.0472 23.2302C39.0472 23.6829 39.1 23.9225 39.1132 23.9757H40.9228C40.9096 23.9092 40.8435 23.4699 40.8435 22.9507V19.7158C40.8435 18.3579 40.0642 17.1598 37.9377 17.1598C36.0093 17.1598 35.1375 18.4112 35.0583 19.3563L36.8018 19.7158C36.8414 19.2232 37.2244 18.744 37.9245 18.744C38.5585 18.744 38.8887 19.0768 38.8887 19.4628C38.8887 19.6891 38.7698 19.8622 38.4132 19.9155L36.8678 20.1551C35.7847 20.3148 34.9262 20.9804 34.9262 22.1519ZM37.6867 22.6977C37.132 22.6977 36.9074 22.3649 36.9074 22.0188C36.9074 21.5529 37.2244 21.3532 37.6471 21.2866L38.8887 21.0869V21.3798C38.8887 22.4049 38.2811 22.6977 37.6867 22.6977Z" fill="#0556F3"/>
<path d="M44.5405 23.9757V20.1684C44.5405 19.5693 44.9236 19.0235 45.6236 19.0235C46.3501 19.0235 46.6803 19.5161 46.6803 20.1418V23.9757H48.6615V20.1551C48.6615 19.5693 49.0446 19.0235 49.7578 19.0235C50.4711 19.0235 50.8013 19.5161 50.8013 20.1418V23.9757H52.7429V19.6891C52.7429 17.892 51.5542 17.1598 50.3126 17.1598C49.4276 17.1598 48.7936 17.4527 48.2785 18.1982C47.9483 17.5458 47.2747 17.1598 46.3369 17.1598C45.6236 17.1598 44.7783 17.5325 44.4481 18.1183V17.3595H42.5329V23.9757H44.5405Z" fill="#0556F3"/>
<path d="M64.6011 23.9757V22.2318H61.5236L64.5483 19.0235V17.3595H59.1725V19.0901H61.9859L59.0932 22.1919V23.9757H64.6011Z" fill="#0556F3"/>
<path d="M56.8636 23.9621H54.5552L55.2343 19.6246H54.5552V17.2072H57.5386V19.6246L56.8636 23.9621Z" fill="#065AFF"/>
<path d="M57.5386 12.8396H54.5552V15.6998H57.5386V12.8396Z" fill="#065AFF"/>
<path d="M76.8815 17.9723C76.8815 16.7907 75.9587 15.8765 74.7254 15.8765H72.6468V22H74.0182V20.0595H74.7254C75.9587 20.0595 76.8815 19.1539 76.8815 17.9723ZM75.5533 17.9723C75.5533 18.4208 75.1997 18.7744 74.7081 18.7744H74.0182V17.1702H74.7081C75.1997 17.1702 75.5533 17.5152 75.5533 17.9723ZM77.7593 22H79.1306V19.473H79.3548L81.3902 22H83.0375L80.8728 19.3005C81.649 19.0245 82.0716 18.5157 82.0716 17.7222C82.0716 16.7045 81.3299 15.8765 80.1742 15.8765H77.7593V22ZM79.1306 18.3087V17.1357H80.0103C80.4157 17.1357 80.7089 17.3513 80.7089 17.7222C80.7089 18.0758 80.4157 18.3087 80.0103 18.3087H79.1306ZM86.0625 22.1035C87.8047 22.1035 89.2278 20.6804 89.2278 18.9383C89.2278 17.1961 87.8047 15.773 86.0625 15.773C84.3118 15.773 82.8973 17.1961 82.8973 18.9383C82.8973 20.6804 84.3118 22.1035 86.0625 22.1035ZM86.0625 20.7753C85.0621 20.7753 84.2773 19.9301 84.2773 18.9383C84.2773 17.9464 85.0621 17.1012 86.0625 17.1012C87.0544 17.1012 87.8392 17.9464 87.8392 18.9383C87.8392 19.9301 87.0544 20.7753 86.0625 20.7753Z" fill="url(#paint4_linear_11758_108706)"/>
</g>
<defs>
<linearGradient id="paint0_linear_11758_108706" x1="80.5" y1="15.0455" x2="80.5" y2="25" gradientUnits="userSpaceOnUse">
<stop stop-color="#9327FE"/>
<stop offset="1" stop-color="#6501E5"/>
</linearGradient>
<linearGradient id="paint1_linear_11758_108706" x1="2.77425" y1="22.8051" x2="2.77425" y2="16.8331" gradientUnits="userSpaceOnUse">
<stop stop-color="#00A3FF"/>
<stop offset="1" stop-color="#0597EA"/>
</linearGradient>
<linearGradient id="paint2_linear_11758_108706" x1="2.77425" y1="17.0251" x2="2.77425" y2="14.0031" gradientUnits="userSpaceOnUse">
<stop stop-color="#00A3FF"/>
<stop offset="1" stop-color="#0597EA"/>
</linearGradient>
<linearGradient id="paint3_linear_11758_108706" x1="4.04941" y1="15.9419" x2="11.3136" y2="11.8665" gradientUnits="userSpaceOnUse">
<stop stop-color="#6501E5"/>
<stop offset="1" stop-color="#5F01D8"/>
</linearGradient>
<linearGradient id="paint4_linear_11758_108706" x1="81" y1="14.813" x2="81" y2="23.6364" gradientUnits="userSpaceOnUse">
<stop stop-color="#9327FE"/>
<stop offset="1" stop-color="#6501E5"/>
</linearGradient>
<clipPath id="clip0_11758_108706">
<rect width="93" height="31" fill="white"/>
</clipPath>
</defs>
</svg>
